<svg width="60" height="60" viewBox="0 0 60 60" fill="none" xmlns="http://www.w3.org/2000/svg">
<path d="M4.99846 42.3002V49.8002C4.99563 50.4965 5.13825 51.1857 5.41718 51.8236C5.69611 52.4616 6.10521 53.0342 6.61826 53.5049C7.13132 53.9756 7.73702 54.334 8.39659 54.557C9.05615 54.7801 9.75503 54.8629 10.4485 54.8002C18.1414 53.9643 25.531 51.3356 32.0235 47.1252C38.0639 43.2869 43.1851 38.1657 47.0235 32.1252C51.2485 25.6033 53.8779 18.1777 54.6985 10.4502C54.7609 9.75891 54.6788 9.06214 54.4572 8.4043C54.2356 7.74646 53.8795 7.14197 53.4115 6.6293C52.9436 6.11662 52.3739 5.70702 51.739 5.42655C51.104 5.14608 50.4176 5.0009 49.7235 5.00024H42.2235C41.0102 4.9883 39.834 5.41794 38.9141 6.20907C37.9941 7.00021 37.3933 8.09886 37.2235 9.30024C36.9069 11.7004 36.3198 14.0571 35.4735 16.3252C35.1371 17.2201 35.0643 18.1925 35.2637 19.1274C35.4631 20.0624 35.9263 20.9205 36.5985 21.6002L39.7735 24.7752C36.2146 31.0341 31.0323 36.2164 24.7735 39.7752L21.5985 36.6002C20.9187 35.9281 20.0606 35.4649 19.1257 35.2655C18.1907 35.0661 17.2183 35.1389 16.3235 35.4752C14.0553 36.3216 11.6986 36.9087 9.29846 37.2252C8.08404 37.3966 6.97495 38.0083 6.18213 38.944C5.3893 39.8797 4.96804 41.0742 4.99846 42.3002Z" stroke="#F4C95D" stroke-width="3" stroke-linecap="round" stroke-linejoin="round"/>
</svg>
